<mxfile host="app.diagrams.net" modified="2022-03-25T07:06:37.384Z" agent="5.0 (Macintosh; Intel Mac OS X 10_15_7) AppleWebKit/537.36 (KHTML, like Gecko) Chrome/99.0.4844.83 Safari/537.36" etag="BCFTONE2CRZTEy6wulxY" version="17.2.1" type="github">
  <diagram id="IXsG80oCsGZxPLJD--3E" name="Page-1">
    <mxGraphModel dx="1666" dy="1906" grid="1" gridSize="10" guides="1" tooltips="1" connect="1" arrows="1" fold="1" page="1" pageScale="1" pageWidth="827" pageHeight="1169" math="0" shadow="0">
      <root>
        <mxCell id="0" />
        <mxCell id="1" parent="0" />
        <mxCell id="rbVpOOUU9IhklZiercOR-5" value="VPC" style="points=[[0,0],[0.25,0],[0.5,0],[0.75,0],[1,0],[1,0.25],[1,0.5],[1,0.75],[1,1],[0.75,1],[0.5,1],[0.25,1],[0,1],[0,0.75],[0,0.5],[0,0.25]];outlineConnect=0;gradientColor=none;html=1;whiteSpace=wrap;fontSize=12;fontStyle=0;container=1;pointerEvents=0;collapsible=0;recursiveResize=0;shape=mxgraph.aws4.group;grIcon=mxgraph.aws4.group_vpc;strokeColor=#248814;fillColor=none;verticalAlign=top;align=left;spacingLeft=30;fontColor=#AAB7B8;dashed=0;" parent="1" vertex="1">
          <mxGeometry x="60.5" y="260" width="689.5" height="840" as="geometry" />
        </mxCell>
        <mxCell id="rbVpOOUU9IhklZiercOR-6" value="Public subnet" style="points=[[0,0],[0.25,0],[0.5,0],[0.75,0],[1,0],[1,0.25],[1,0.5],[1,0.75],[1,1],[0.75,1],[0.5,1],[0.25,1],[0,1],[0,0.75],[0,0.5],[0,0.25]];outlineConnect=0;gradientColor=none;html=1;whiteSpace=wrap;fontSize=12;fontStyle=0;container=1;pointerEvents=0;collapsible=0;recursiveResize=0;shape=mxgraph.aws4.group;grIcon=mxgraph.aws4.group_security_group;grStroke=0;strokeColor=#248814;fillColor=#E9F3E6;verticalAlign=top;align=left;spacingLeft=30;fontColor=#248814;dashed=0;" parent="rbVpOOUU9IhklZiercOR-5" vertex="1">
          <mxGeometry x="69.5" y="382" width="240.5" height="208" as="geometry" />
        </mxCell>
        <mxCell id="rbVpOOUU9IhklZiercOR-4" value="" style="outlineConnect=0;dashed=0;verticalLabelPosition=bottom;verticalAlign=top;align=center;html=1;shape=mxgraph.aws3.ec2;fillColor=#F58534;gradientColor=none;" parent="rbVpOOUU9IhklZiercOR-6" vertex="1">
          <mxGeometry x="80" y="70" width="76.5" height="93" as="geometry" />
        </mxCell>
        <mxCell id="rbVpOOUU9IhklZiercOR-27" value="" style="edgeStyle=orthogonalEdgeStyle;html=1;endArrow=none;elbow=vertical;startArrow=open;startFill=0;strokeColor=#545B64;rounded=0;" parent="rbVpOOUU9IhklZiercOR-5" source="rbVpOOUU9IhklZiercOR-4" edge="1">
          <mxGeometry width="100" relative="1" as="geometry">
            <mxPoint x="249.5" y="262" as="sourcePoint" />
            <mxPoint x="187.5" y="290" as="targetPoint" />
          </mxGeometry>
        </mxCell>
        <mxCell id="rbVpOOUU9IhklZiercOR-29" value="Public subnet" style="points=[[0,0],[0.25,0],[0.5,0],[0.75,0],[1,0],[1,0.25],[1,0.5],[1,0.75],[1,1],[0.75,1],[0.5,1],[0.25,1],[0,1],[0,0.75],[0,0.5],[0,0.25]];outlineConnect=0;gradientColor=none;html=1;whiteSpace=wrap;fontSize=12;fontStyle=0;container=1;pointerEvents=0;collapsible=0;recursiveResize=0;shape=mxgraph.aws4.group;grIcon=mxgraph.aws4.group_security_group;grStroke=0;strokeColor=#248814;fillColor=#E9F3E6;verticalAlign=top;align=left;spacingLeft=30;fontColor=#248814;dashed=0;" parent="rbVpOOUU9IhklZiercOR-5" vertex="1">
          <mxGeometry x="69.5" y="602" width="240.5" height="210" as="geometry" />
        </mxCell>
        <mxCell id="rbVpOOUU9IhklZiercOR-63" value="" style="outlineConnect=0;dashed=0;verticalLabelPosition=bottom;verticalAlign=top;align=center;html=1;shape=mxgraph.aws3.internet_gateway;fillColor=#F58534;gradientColor=none;" parent="rbVpOOUU9IhklZiercOR-5" vertex="1">
          <mxGeometry x="310" y="-40" width="69" height="72" as="geometry" />
        </mxCell>
        <mxCell id="rbVpOOUU9IhklZiercOR-62" value="Region" style="points=[[0,0],[0.25,0],[0.5,0],[0.75,0],[1,0],[1,0.25],[1,0.5],[1,0.75],[1,1],[0.75,1],[0.5,1],[0.25,1],[0,1],[0,0.75],[0,0.5],[0,0.25]];outlineConnect=0;gradientColor=none;html=1;whiteSpace=wrap;fontSize=12;fontStyle=0;container=1;pointerEvents=0;collapsible=0;recursiveResize=0;shape=mxgraph.aws4.group;grIcon=mxgraph.aws4.group_region;strokeColor=#147EBA;fillColor=none;verticalAlign=top;align=left;spacingLeft=30;fontColor=#147EBA;dashed=1;shadow=1;" parent="1" vertex="1">
          <mxGeometry x="30" y="230" width="820" height="910" as="geometry" />
        </mxCell>
        <mxCell id="xZDgvZ73IKltHzYtCwOw-5" value="Private subnet" style="points=[[0,0],[0.25,0],[0.5,0],[0.75,0],[1,0],[1,0.25],[1,0.5],[1,0.75],[1,1],[0.75,1],[0.5,1],[0.25,1],[0,1],[0,0.75],[0,0.5],[0,0.25]];outlineConnect=0;gradientColor=none;html=1;whiteSpace=wrap;fontSize=12;fontStyle=0;container=1;pointerEvents=0;collapsible=0;recursiveResize=0;shape=mxgraph.aws4.group;grIcon=mxgraph.aws4.group_security_group;grStroke=0;strokeColor=#147EBA;fillColor=#E6F2F8;verticalAlign=top;align=left;spacingLeft=30;fontColor=#147EBA;dashed=0;" parent="rbVpOOUU9IhklZiercOR-62" vertex="1">
          <mxGeometry x="570" y="70" width="130" height="130" as="geometry" />
        </mxCell>
        <mxCell id="xZDgvZ73IKltHzYtCwOw-40" value="" style="outlineConnect=0;dashed=0;verticalLabelPosition=bottom;verticalAlign=top;align=center;html=1;shape=mxgraph.aws3.vpc_nat_gateway;fillColor=#F58534;gradientColor=none;" parent="xZDgvZ73IKltHzYtCwOw-5" vertex="1">
          <mxGeometry x="31" y="40" width="69" height="72" as="geometry" />
        </mxCell>
        <mxCell id="5YPxUz5dsuTZFwqubD_V-10" value="Public subnet" style="points=[[0,0],[0.25,0],[0.5,0],[0.75,0],[1,0],[1,0.25],[1,0.5],[1,0.75],[1,1],[0.75,1],[0.5,1],[0.25,1],[0,1],[0,0.75],[0,0.5],[0,0.25]];outlineConnect=0;gradientColor=none;html=1;whiteSpace=wrap;fontSize=12;fontStyle=0;container=1;pointerEvents=0;collapsible=0;recursiveResize=0;shape=mxgraph.aws4.group;grIcon=mxgraph.aws4.group_security_group;grStroke=0;strokeColor=#248814;fillColor=#E9F3E6;verticalAlign=top;align=left;spacingLeft=30;fontColor=#248814;dashed=0;" parent="rbVpOOUU9IhklZiercOR-62" vertex="1">
          <mxGeometry x="410" y="422" width="240.5" height="200" as="geometry" />
        </mxCell>
        <mxCell id="rbVpOOUU9IhklZiercOR-12" value="" style="outlineConnect=0;dashed=0;verticalLabelPosition=bottom;verticalAlign=top;align=center;html=1;shape=mxgraph.aws3.ec2;fillColor=#F58534;gradientColor=none;" parent="5YPxUz5dsuTZFwqubD_V-10" vertex="1">
          <mxGeometry x="90" y="53.5" width="76.5" height="93" as="geometry" />
        </mxCell>
        <mxCell id="nPi6pv4HeE6bBKtAneD--34" value="App" style="text;html=1;resizable=0;autosize=1;align=center;verticalAlign=middle;points=[];fillColor=none;strokeColor=none;rounded=0;shadow=1;" parent="5YPxUz5dsuTZFwqubD_V-10" vertex="1">
          <mxGeometry x="130" y="148" width="40" height="20" as="geometry" />
        </mxCell>
        <mxCell id="rbVpOOUU9IhklZiercOR-59" value="" style="sketch=0;points=[[0,0,0],[0.25,0,0],[0.5,0,0],[0.75,0,0],[1,0,0],[0,1,0],[0.25,1,0],[0.5,1,0],[0.75,1,0],[1,1,0],[0,0.25,0],[0,0.5,0],[0,0.75,0],[1,0.25,0],[1,0.5,0],[1,0.75,0]];outlineConnect=0;fontColor=#232F3E;gradientColor=#945DF2;gradientDirection=north;fillColor=#5A30B5;strokeColor=#ffffff;dashed=0;verticalLabelPosition=bottom;verticalAlign=top;align=center;html=1;fontSize=12;fontStyle=0;aspect=fixed;shape=mxgraph.aws4.resourceIcon;resIcon=mxgraph.aws4.route_53;" parent="rbVpOOUU9IhklZiercOR-62" vertex="1">
          <mxGeometry x="480" width="58" height="58" as="geometry" />
        </mxCell>
        <mxCell id="rbVpOOUU9IhklZiercOR-83" value="Private subnet" style="points=[[0,0],[0.25,0],[0.5,0],[0.75,0],[1,0],[1,0.25],[1,0.5],[1,0.75],[1,1],[0.75,1],[0.5,1],[0.25,1],[0,1],[0,0.75],[0,0.5],[0,0.25]];outlineConnect=0;gradientColor=none;html=1;whiteSpace=wrap;fontSize=12;fontStyle=0;container=1;pointerEvents=0;collapsible=0;recursiveResize=0;shape=mxgraph.aws4.group;grIcon=mxgraph.aws4.group_security_group;grStroke=0;strokeColor=#147EBA;fillColor=#E6F2F8;verticalAlign=top;align=left;spacingLeft=30;fontColor=#147EBA;dashed=0;" parent="rbVpOOUU9IhklZiercOR-62" vertex="1">
          <mxGeometry x="420" y="226.5" width="240.5" height="150" as="geometry" />
        </mxCell>
        <mxCell id="xZDgvZ73IKltHzYtCwOw-3" value="Public subnet" style="points=[[0,0],[0.25,0],[0.5,0],[0.75,0],[1,0],[1,0.25],[1,0.5],[1,0.75],[1,1],[0.75,1],[0.5,1],[0.25,1],[0,1],[0,0.75],[0,0.5],[0,0.25]];outlineConnect=0;gradientColor=none;html=1;whiteSpace=wrap;fontSize=12;fontStyle=0;container=1;pointerEvents=0;collapsible=0;recursiveResize=0;shape=mxgraph.aws4.group;grIcon=mxgraph.aws4.group_security_group;grStroke=0;strokeColor=#248814;fillColor=#E9F3E6;verticalAlign=top;align=left;spacingLeft=30;fontColor=#248814;dashed=0;" parent="rbVpOOUU9IhklZiercOR-83" vertex="1">
          <mxGeometry x="-10" width="250" height="150" as="geometry" />
        </mxCell>
        <mxCell id="xZDgvZ73IKltHzYtCwOw-41" value="" style="edgeStyle=orthogonalEdgeStyle;html=1;endArrow=block;elbow=vertical;startArrow=none;endFill=1;strokeColor=#545B64;rounded=0;entryX=0.5;entryY=1;entryDx=0;entryDy=0;entryPerimeter=0;" parent="xZDgvZ73IKltHzYtCwOw-3" target="xZDgvZ73IKltHzYtCwOw-40" edge="1">
          <mxGeometry width="100" relative="1" as="geometry">
            <mxPoint x="175.5" y="53.5" as="sourcePoint" />
            <mxPoint x="275.5" y="53.5" as="targetPoint" />
          </mxGeometry>
        </mxCell>
        <mxCell id="rbVpOOUU9IhklZiercOR-84" value="" style="outlineConnect=0;dashed=0;verticalLabelPosition=bottom;verticalAlign=top;align=center;html=1;shape=mxgraph.aws3.ec2;fillColor=#F58534;gradientColor=none;" parent="rbVpOOUU9IhklZiercOR-83" vertex="1">
          <mxGeometry x="82" y="40" width="76.5" height="93" as="geometry" />
        </mxCell>
        <mxCell id="nPi6pv4HeE6bBKtAneD--31" value="Web" style="text;html=1;resizable=0;autosize=1;align=center;verticalAlign=middle;points=[];fillColor=none;strokeColor=none;rounded=0;shadow=1;" parent="rbVpOOUU9IhklZiercOR-83" vertex="1">
          <mxGeometry x="150" y="115" width="40" height="20" as="geometry" />
        </mxCell>
        <mxCell id="rbVpOOUU9IhklZiercOR-52" value="" style="outlineConnect=0;dashed=0;verticalLabelPosition=bottom;verticalAlign=top;align=center;html=1;shape=mxgraph.aws3.efs;fillColor=#E05243;gradientColor=none;" parent="rbVpOOUU9IhklZiercOR-62" vertex="1">
          <mxGeometry x="670" y="390" width="76.5" height="93" as="geometry" />
        </mxCell>
        <mxCell id="rbVpOOUU9IhklZiercOR-28" value="" style="edgeStyle=orthogonalEdgeStyle;html=1;endArrow=none;elbow=vertical;startArrow=open;startFill=0;strokeColor=#545B64;rounded=0;entryX=0.5;entryY=1;entryDx=0;entryDy=0;entryPerimeter=0;exitX=0.5;exitY=0;exitDx=0;exitDy=0;exitPerimeter=0;" parent="rbVpOOUU9IhklZiercOR-62" source="rbVpOOUU9IhklZiercOR-12" target="rbVpOOUU9IhklZiercOR-84" edge="1">
          <mxGeometry width="100" relative="1" as="geometry">
            <mxPoint x="228.29999999999995" y="502" as="sourcePoint" />
            <mxPoint x="488.25" y="315" as="targetPoint" />
          </mxGeometry>
        </mxCell>
        <mxCell id="rbVpOOUU9IhklZiercOR-54" value="" style="edgeStyle=orthogonalEdgeStyle;html=1;endArrow=openThin;elbow=vertical;startArrow=openThin;startFill=0;endFill=0;strokeColor=#545B64;rounded=0;exitX=0.5;exitY=1;exitDx=0;exitDy=0;exitPerimeter=0;entryX=1;entryY=0.5;entryDx=0;entryDy=0;entryPerimeter=0;" parent="rbVpOOUU9IhklZiercOR-62" source="rbVpOOUU9IhklZiercOR-52" target="rbVpOOUU9IhklZiercOR-12" edge="1">
          <mxGeometry width="100" relative="1" as="geometry">
            <mxPoint x="679.1800000000001" y="428.5" as="sourcePoint" />
            <mxPoint x="266.5" y="548.5" as="targetPoint" />
          </mxGeometry>
        </mxCell>
        <mxCell id="5YPxUz5dsuTZFwqubD_V-12" value="Public subnet" style="points=[[0,0],[0.25,0],[0.5,0],[0.75,0],[1,0],[1,0.25],[1,0.5],[1,0.75],[1,1],[0.75,1],[0.5,1],[0.25,1],[0,1],[0,0.75],[0,0.5],[0,0.25]];outlineConnect=0;gradientColor=none;html=1;whiteSpace=wrap;fontSize=12;fontStyle=0;container=1;pointerEvents=0;collapsible=0;recursiveResize=0;shape=mxgraph.aws4.group;grIcon=mxgraph.aws4.group_security_group;grStroke=0;strokeColor=#248814;fillColor=#E9F3E6;verticalAlign=top;align=left;spacingLeft=30;fontColor=#248814;dashed=0;" parent="rbVpOOUU9IhklZiercOR-62" vertex="1">
          <mxGeometry x="410" y="640" width="290" height="190" as="geometry" />
        </mxCell>
        <mxCell id="rbVpOOUU9IhklZiercOR-50" value="" style="outlineConnect=0;dashed=0;verticalLabelPosition=bottom;verticalAlign=top;align=center;html=1;shape=mxgraph.aws3.rds;fillColor=#2E73B8;gradientColor=none;" parent="5YPxUz5dsuTZFwqubD_V-12" vertex="1">
          <mxGeometry x="30" y="70" width="72" height="81" as="geometry" />
        </mxCell>
        <mxCell id="nPi6pv4HeE6bBKtAneD--24" value="slave" style="text;html=1;align=center;verticalAlign=middle;resizable=0;points=[];autosize=1;strokeColor=none;fillColor=none;" parent="5YPxUz5dsuTZFwqubD_V-12" vertex="1">
          <mxGeometry x="46" y="160" width="40" height="20" as="geometry" />
        </mxCell>
        <mxCell id="nPi6pv4HeE6bBKtAneD--28" value="RDSは自動バックアップが&lt;br&gt;撮られるためS3などはいらない" style="text;html=1;resizable=0;autosize=1;align=center;verticalAlign=middle;points=[];fillColor=none;strokeColor=none;rounded=0;shadow=1;" parent="5YPxUz5dsuTZFwqubD_V-12" vertex="1">
          <mxGeometry x="100" y="110" width="190" height="30" as="geometry" />
        </mxCell>
        <mxCell id="rbVpOOUU9IhklZiercOR-51" value="" style="edgeStyle=orthogonalEdgeStyle;html=1;endArrow=openThin;elbow=vertical;startArrow=openThin;startFill=0;endFill=0;strokeColor=#545B64;rounded=0;exitX=0.5;exitY=1;exitDx=0;exitDy=0;exitPerimeter=0;entryX=0.5;entryY=0;entryDx=0;entryDy=0;entryPerimeter=0;" parent="rbVpOOUU9IhklZiercOR-62" source="rbVpOOUU9IhklZiercOR-12" target="rbVpOOUU9IhklZiercOR-50" edge="1">
          <mxGeometry width="100" relative="1" as="geometry">
            <mxPoint x="228.29999999999995" y="595" as="sourcePoint" />
            <mxPoint x="206" y="732" as="targetPoint" />
          </mxGeometry>
        </mxCell>
        <mxCell id="rbVpOOUU9IhklZiercOR-36" value="" style="outlineConnect=0;dashed=0;verticalLabelPosition=bottom;verticalAlign=top;align=center;html=1;shape=mxgraph.aws3.rds;fillColor=#2E73B8;gradientColor=none;" parent="rbVpOOUU9IhklZiercOR-62" vertex="1">
          <mxGeometry x="180" y="694.5" width="72" height="81" as="geometry" />
        </mxCell>
        <mxCell id="rbVpOOUU9IhklZiercOR-22" value="" style="outlineConnect=0;dashed=0;verticalLabelPosition=bottom;verticalAlign=top;align=center;html=1;shape=mxgraph.aws3.classic_load_balancer;fillColor=#F58534;gradientColor=none;" parent="rbVpOOUU9IhklZiercOR-62" vertex="1">
          <mxGeometry x="315.75" y="70" width="114.25" height="102" as="geometry" />
        </mxCell>
        <mxCell id="5YPxUz5dsuTZFwqubD_V-15" value="" style="outlineConnect=0;dashed=0;verticalLabelPosition=bottom;verticalAlign=top;align=center;html=1;shape=mxgraph.aws3.vpn_gateway;fillColor=#F58534;gradientColor=none;" parent="rbVpOOUU9IhklZiercOR-62" vertex="1">
          <mxGeometry x="780" y="419" width="69" height="72" as="geometry" />
        </mxCell>
        <mxCell id="nPi6pv4HeE6bBKtAneD--6" value="master" style="text;html=1;align=center;verticalAlign=middle;resizable=0;points=[];autosize=1;strokeColor=none;fillColor=none;" parent="rbVpOOUU9IhklZiercOR-62" vertex="1">
          <mxGeometry x="191" y="800" width="50" height="20" as="geometry" />
        </mxCell>
        <mxCell id="nPi6pv4HeE6bBKtAneD--25" value="" style="edgeStyle=orthogonalEdgeStyle;html=1;endArrow=block;elbow=vertical;startArrow=none;endFill=1;strokeColor=#545B64;rounded=0;entryX=0;entryY=0.5;entryDx=0;entryDy=0;entryPerimeter=0;" parent="rbVpOOUU9IhklZiercOR-62" target="rbVpOOUU9IhklZiercOR-50" edge="1">
          <mxGeometry width="100" relative="1" as="geometry">
            <mxPoint x="252" y="734.5" as="sourcePoint" />
            <mxPoint x="352" y="734.5" as="targetPoint" />
          </mxGeometry>
        </mxCell>
        <mxCell id="nPi6pv4HeE6bBKtAneD--29" value="vpn" style="text;html=1;align=center;verticalAlign=middle;resizable=0;points=[];autosize=1;strokeColor=none;fillColor=none;" parent="rbVpOOUU9IhklZiercOR-62" vertex="1">
          <mxGeometry x="797" y="500" width="30" height="20" as="geometry" />
        </mxCell>
        <mxCell id="nPi6pv4HeE6bBKtAneD--33" value="App" style="text;html=1;resizable=0;autosize=1;align=center;verticalAlign=middle;points=[];fillColor=none;strokeColor=none;rounded=0;shadow=1;" parent="rbVpOOUU9IhklZiercOR-62" vertex="1">
          <mxGeometry x="241" y="570" width="40" height="20" as="geometry" />
        </mxCell>
        <mxCell id="rbVpOOUU9IhklZiercOR-13" value="Private subnet" style="points=[[0,0],[0.25,0],[0.5,0],[0.75,0],[1,0],[1,0.25],[1,0.5],[1,0.75],[1,1],[0.75,1],[0.5,1],[0.25,1],[0,1],[0,0.75],[0,0.5],[0,0.25]];outlineConnect=0;gradientColor=none;html=1;whiteSpace=wrap;fontSize=12;fontStyle=0;container=1;pointerEvents=0;collapsible=0;recursiveResize=0;shape=mxgraph.aws4.group;grIcon=mxgraph.aws4.group_security_group;grStroke=0;strokeColor=#147EBA;fillColor=#E6F2F8;verticalAlign=top;align=left;spacingLeft=30;fontColor=#147EBA;dashed=0;" parent="rbVpOOUU9IhklZiercOR-62" vertex="1">
          <mxGeometry x="100" y="233" width="240.5" height="132" as="geometry" />
        </mxCell>
        <mxCell id="xZDgvZ73IKltHzYtCwOw-2" value="Public subnet" style="points=[[0,0],[0.25,0],[0.5,0],[0.75,0],[1,0],[1,0.25],[1,0.5],[1,0.75],[1,1],[0.75,1],[0.5,1],[0.25,1],[0,1],[0,0.75],[0,0.5],[0,0.25]];outlineConnect=0;gradientColor=none;html=1;whiteSpace=wrap;fontSize=12;fontStyle=0;container=1;pointerEvents=0;collapsible=0;recursiveResize=0;shape=mxgraph.aws4.group;grIcon=mxgraph.aws4.group_security_group;grStroke=0;strokeColor=#248814;fillColor=#E9F3E6;verticalAlign=top;align=left;spacingLeft=30;fontColor=#248814;dashed=0;" parent="rbVpOOUU9IhklZiercOR-13" vertex="1">
          <mxGeometry width="240" height="130" as="geometry" />
        </mxCell>
        <mxCell id="rbVpOOUU9IhklZiercOR-14" value="" style="outlineConnect=0;dashed=0;verticalLabelPosition=bottom;verticalAlign=top;align=center;html=1;shape=mxgraph.aws3.ec2;fillColor=#F58534;gradientColor=none;" parent="rbVpOOUU9IhklZiercOR-13" vertex="1">
          <mxGeometry x="77.5" y="32" width="76.5" height="93" as="geometry" />
        </mxCell>
        <mxCell id="nPi6pv4HeE6bBKtAneD--32" value="Web" style="text;html=1;resizable=0;autosize=1;align=center;verticalAlign=middle;points=[];fillColor=none;strokeColor=none;rounded=0;shadow=1;" parent="rbVpOOUU9IhklZiercOR-13" vertex="1">
          <mxGeometry x="154" y="88" width="40" height="20" as="geometry" />
        </mxCell>
        <mxCell id="rbVpOOUU9IhklZiercOR-23" value="" style="edgeStyle=orthogonalEdgeStyle;html=1;endArrow=block;elbow=vertical;startArrow=none;endFill=1;strokeColor=#545B64;rounded=0;" parent="rbVpOOUU9IhklZiercOR-62" source="rbVpOOUU9IhklZiercOR-22" target="rbVpOOUU9IhklZiercOR-14" edge="1">
          <mxGeometry width="100" relative="1" as="geometry">
            <mxPoint x="280" y="292" as="sourcePoint" />
            <mxPoint x="380" y="292" as="targetPoint" />
          </mxGeometry>
        </mxCell>
        <mxCell id="xZDgvZ73IKltHzYtCwOw-1" value="" style="edgeStyle=orthogonalEdgeStyle;html=1;endArrow=block;elbow=vertical;startArrow=none;endFill=1;strokeColor=#545B64;rounded=0;exitX=1;exitY=0.5;exitDx=0;exitDy=0;exitPerimeter=0;" parent="rbVpOOUU9IhklZiercOR-62" source="rbVpOOUU9IhklZiercOR-22" edge="1">
          <mxGeometry width="100" relative="1" as="geometry">
            <mxPoint x="631.95" y="120" as="sourcePoint" />
            <mxPoint x="530" y="261" as="targetPoint" />
          </mxGeometry>
        </mxCell>
        <mxCell id="xZDgvZ73IKltHzYtCwOw-4" value="Private subnet" style="points=[[0,0],[0.25,0],[0.5,0],[0.75,0],[1,0],[1,0.25],[1,0.5],[1,0.75],[1,1],[0.75,1],[0.5,1],[0.25,1],[0,1],[0,0.75],[0,0.5],[0,0.25]];outlineConnect=0;gradientColor=none;html=1;whiteSpace=wrap;fontSize=12;fontStyle=0;container=1;pointerEvents=0;collapsible=0;recursiveResize=0;shape=mxgraph.aws4.group;grIcon=mxgraph.aws4.group_security_group;grStroke=0;strokeColor=#147EBA;fillColor=#E6F2F8;verticalAlign=top;align=left;spacingLeft=30;fontColor=#147EBA;dashed=0;" parent="rbVpOOUU9IhklZiercOR-62" vertex="1">
          <mxGeometry x="70" y="70" width="130" height="130" as="geometry" />
        </mxCell>
        <mxCell id="xZDgvZ73IKltHzYtCwOw-6" value="" style="outlineConnect=0;dashed=0;verticalLabelPosition=bottom;verticalAlign=top;align=center;html=1;shape=mxgraph.aws3.vpc_nat_gateway;fillColor=#F58534;gradientColor=none;" parent="xZDgvZ73IKltHzYtCwOw-4" vertex="1">
          <mxGeometry x="39" y="30" width="69" height="72" as="geometry" />
        </mxCell>
        <mxCell id="xZDgvZ73IKltHzYtCwOw-42" value="" style="edgeStyle=orthogonalEdgeStyle;html=1;endArrow=block;elbow=vertical;startArrow=none;endFill=1;strokeColor=#545B64;rounded=0;entryX=0.5;entryY=1;entryDx=0;entryDy=0;entryPerimeter=0;" parent="rbVpOOUU9IhklZiercOR-62" target="xZDgvZ73IKltHzYtCwOw-6" edge="1">
          <mxGeometry width="100" relative="1" as="geometry">
            <mxPoint x="170" y="298" as="sourcePoint" />
            <mxPoint x="220" y="200" as="targetPoint" />
            <Array as="points">
              <mxPoint x="140" y="298" />
              <mxPoint x="140" y="200" />
              <mxPoint x="144" y="200" />
            </Array>
          </mxGeometry>
        </mxCell>
        <mxCell id="xZDgvZ73IKltHzYtCwOw-44" value="" style="edgeStyle=orthogonalEdgeStyle;html=1;endArrow=none;elbow=vertical;startArrow=open;startFill=0;strokeColor=#545B64;rounded=0;" parent="rbVpOOUU9IhklZiercOR-62" target="xZDgvZ73IKltHzYtCwOw-40" edge="1">
          <mxGeometry width="100" relative="1" as="geometry">
            <mxPoint x="400" y="50" as="sourcePoint" />
            <mxPoint x="500" y="50" as="targetPoint" />
          </mxGeometry>
        </mxCell>
        <mxCell id="xZDgvZ73IKltHzYtCwOw-45" value="" style="outlineConnect=0;dashed=0;verticalLabelPosition=bottom;verticalAlign=top;align=center;html=1;shape=mxgraph.aws3.auto_scaling;fillColor=#F58534;gradientColor=none;" parent="rbVpOOUU9IhklZiercOR-62" vertex="1">
          <mxGeometry x="340.5" y="172" width="66.87" height="48" as="geometry" />
        </mxCell>
        <mxCell id="rbVpOOUU9IhklZiercOR-58" value="" style="sketch=0;outlineConnect=0;fontColor=#232F3E;gradientColor=none;fillColor=#232F3D;strokeColor=none;dashed=0;verticalLabelPosition=bottom;verticalAlign=top;align=center;html=1;fontSize=12;fontStyle=0;aspect=fixed;pointerEvents=1;shape=mxgraph.aws4.mobile_client;" parent="1" vertex="1">
          <mxGeometry x="384.75" y="-60" width="41" height="78" as="geometry" />
        </mxCell>
        <mxCell id="rbVpOOUU9IhklZiercOR-60" value="" style="edgeStyle=orthogonalEdgeStyle;html=1;endArrow=block;elbow=vertical;startArrow=block;startFill=1;endFill=1;strokeColor=#545B64;rounded=0;entryX=0.5;entryY=0;entryDx=0;entryDy=0;entryPerimeter=0;" parent="1" edge="1">
          <mxGeometry width="100" relative="1" as="geometry">
            <mxPoint x="404.75" y="18" as="sourcePoint" />
            <mxPoint x="404.75" y="94" as="targetPoint" />
          </mxGeometry>
        </mxCell>
        <mxCell id="rbVpOOUU9IhklZiercOR-56" value="" style="edgeStyle=orthogonalEdgeStyle;html=1;endArrow=block;elbow=vertical;startArrow=block;startFill=1;endFill=1;strokeColor=#545B64;rounded=0;exitX=0.5;exitY=1;exitDx=0;exitDy=0;exitPerimeter=0;entryX=0.5;entryY=0;entryDx=0;entryDy=0;entryPerimeter=0;" parent="1" source="rbVpOOUU9IhklZiercOR-55" target="rbVpOOUU9IhklZiercOR-22" edge="1">
          <mxGeometry width="100" relative="1" as="geometry">
            <mxPoint x="390.5" y="570" as="sourcePoint" />
            <mxPoint x="490.5" y="570" as="targetPoint" />
          </mxGeometry>
        </mxCell>
        <mxCell id="rbVpOOUU9IhklZiercOR-53" value="" style="edgeStyle=orthogonalEdgeStyle;html=1;endArrow=openThin;elbow=vertical;startArrow=openThin;startFill=0;endFill=0;strokeColor=#545B64;rounded=0;exitX=0.12;exitY=0.5;exitDx=0;exitDy=0;exitPerimeter=0;entryX=1;entryY=0.5;entryDx=0;entryDy=0;entryPerimeter=0;" parent="1" source="rbVpOOUU9IhklZiercOR-52" target="rbVpOOUU9IhklZiercOR-4" edge="1">
          <mxGeometry width="100" relative="1" as="geometry">
            <mxPoint x="258.29999999999995" y="815" as="sourcePoint" />
            <mxPoint x="236" y="952" as="targetPoint" />
          </mxGeometry>
        </mxCell>
        <mxCell id="rbVpOOUU9IhklZiercOR-35" value="" style="edgeStyle=orthogonalEdgeStyle;html=1;endArrow=openThin;elbow=vertical;startArrow=openThin;startFill=0;endFill=0;strokeColor=#545B64;rounded=0;" parent="1" source="rbVpOOUU9IhklZiercOR-4" target="rbVpOOUU9IhklZiercOR-36" edge="1">
          <mxGeometry width="100" relative="1" as="geometry">
            <mxPoint x="310" y="832" as="sourcePoint" />
            <mxPoint x="410" y="832" as="targetPoint" />
          </mxGeometry>
        </mxCell>
        <mxCell id="nPi6pv4HeE6bBKtAneD--1" value="" style="edgeStyle=orthogonalEdgeStyle;html=1;endArrow=block;elbow=vertical;startArrow=block;startFill=1;endFill=1;strokeColor=#545B64;rounded=0;shape=arrow;" parent="1" edge="1">
          <mxGeometry width="100" relative="1" as="geometry">
            <mxPoint x="1090" y="735" as="sourcePoint" />
            <mxPoint x="870" y="735" as="targetPoint" />
            <Array as="points">
              <mxPoint x="1090" y="710" />
              <mxPoint x="875" y="710" />
              <mxPoint x="875" y="730" />
            </Array>
          </mxGeometry>
        </mxCell>
        <mxCell id="nPi6pv4HeE6bBKtAneD--2" value="" style="edgeStyle=orthogonalEdgeStyle;html=1;endArrow=block;elbow=vertical;startArrow=none;endFill=1;strokeColor=#545B64;rounded=0;shape=arrow;" parent="1" edge="1">
          <mxGeometry width="100" relative="1" as="geometry">
            <mxPoint x="890" y="670" as="sourcePoint" />
            <mxPoint x="1100" y="670" as="targetPoint" />
          </mxGeometry>
        </mxCell>
        <mxCell id="nPi6pv4HeE6bBKtAneD--3" value="" style="outlineConnect=0;dashed=0;verticalLabelPosition=bottom;verticalAlign=top;align=center;html=1;shape=mxgraph.aws3.customer_gateway;fillColor=#F58534;gradientColor=none;" parent="1" vertex="1">
          <mxGeometry x="1140" y="660" width="69" height="72" as="geometry" />
        </mxCell>
        <mxCell id="nPi6pv4HeE6bBKtAneD--4" value="Corporate data center" style="points=[[0,0],[0.25,0],[0.5,0],[0.75,0],[1,0],[1,0.25],[1,0.5],[1,0.75],[1,1],[0.75,1],[0.5,1],[0.25,1],[0,1],[0,0.75],[0,0.5],[0,0.25]];outlineConnect=0;gradientColor=none;html=1;whiteSpace=wrap;fontSize=12;fontStyle=0;container=1;pointerEvents=0;collapsible=0;recursiveResize=0;shape=mxgraph.aws4.group;grIcon=mxgraph.aws4.group_corporate_data_center;strokeColor=#5A6C86;fillColor=none;verticalAlign=top;align=left;spacingLeft=30;fontColor=#5A6C86;dashed=0;" parent="1" vertex="1">
          <mxGeometry x="1170" y="520" width="360" height="310" as="geometry" />
        </mxCell>
        <mxCell id="5YPxUz5dsuTZFwqubD_V-14" value="" style="sketch=0;pointerEvents=1;shadow=0;dashed=0;html=1;strokeColor=none;fillColor=#434445;aspect=fixed;labelPosition=center;verticalLabelPosition=bottom;verticalAlign=top;align=center;outlineConnect=0;shape=mxgraph.vvd.datacenter;" parent="nPi6pv4HeE6bBKtAneD--4" vertex="1">
          <mxGeometry x="90" y="90" width="189.19" height="140" as="geometry" />
        </mxCell>
        <mxCell id="nPi6pv4HeE6bBKtAneD--30" value="customer&lt;br&gt;gateway" style="text;html=1;align=center;verticalAlign=middle;resizable=0;points=[];autosize=1;strokeColor=none;fillColor=none;" parent="1" vertex="1">
          <mxGeometry x="1144.5" y="740" width="60" height="30" as="geometry" />
        </mxCell>
        <mxCell id="rbVpOOUU9IhklZiercOR-55" value="" style="outlineConnect=0;dashed=0;verticalLabelPosition=bottom;verticalAlign=top;align=center;html=1;shape=mxgraph.aws3.internet_2;fillColor=#D2D3D3;gradientColor=none;" parent="1" vertex="1">
          <mxGeometry x="363.13" y="90" width="79.5" height="54" as="geometry" />
        </mxCell>
        <mxCell id="xZDgvZ73IKltHzYtCwOw-43" value="" style="edgeStyle=orthogonalEdgeStyle;html=1;endArrow=block;elbow=vertical;startArrow=none;endFill=1;strokeColor=#545B64;rounded=0;entryX=0.145;entryY=0.855;entryDx=0;entryDy=0;entryPerimeter=0;exitX=0.855;exitY=0.145;exitDx=0;exitDy=0;exitPerimeter=0;" parent="1" source="xZDgvZ73IKltHzYtCwOw-6" target="rbVpOOUU9IhklZiercOR-63" edge="1">
          <mxGeometry width="100" relative="1" as="geometry">
            <mxPoint x="196" y="330" as="sourcePoint" />
            <mxPoint x="296" y="330" as="targetPoint" />
            <Array as="points">
              <mxPoint x="180" y="340" />
              <mxPoint x="180" y="282" />
            </Array>
          </mxGeometry>
        </mxCell>
      </root>
    </mxGraphModel>
  </diagram>
</mxfile>
